<svg width="34" height="39" viewBox="0 0 34 39" fill="none" xmlns="http://www.w3.org/2000/svg">
<path d="M15.073 25.3477C17.532 24.3998 19.2784 22.0063 19.2784 19.2011C19.2784 15.5657 16.3464 12.6187 12.7299 12.6187C9.11345 12.6187 6.18143 15.5657 6.18143 19.2011C6.18143 22.0063 7.92824 24.3998 10.3872 25.3477C5.17523 26.2814 1.20932 30.2685 0.956207 35.1171C3.68933 36.8795 7.94696 38.012 12.7299 38.012C17.5129 38.012 21.7709 36.8795 24.5036 35.1171C24.2509 30.2685 20.2842 26.2814 15.073 25.3477Z" fill="black"/>
<path d="M26.8733 10.3978C28.6743 9.65028 29.9422 7.86786 29.9422 5.78712C29.9422 3.03254 27.7207 0.799316 24.9798 0.799316C22.2389 0.799316 20.0178 3.03254 20.0178 5.78712C20.0178 7.88276 21.3044 9.67498 23.1261 10.4135C21.1484 10.7973 19.4157 11.7624 18.1665 13.0975C19.8934 14.5464 20.9924 16.7255 20.9924 19.1633C20.9924 19.3107 20.9878 19.4573 20.9796 19.6028C22.2401 19.847 23.607 19.9822 25.0387 19.9822C28.663 19.9822 31.8887 19.1241 33.9599 17.789C33.7692 14.1336 30.7924 11.1254 26.8733 10.3978Z" fill="black"/>
</svg>
