<svg width="30" height="30" viewBox="0 0 30 30" fill="none" xmlns="http://www.w3.org/2000/svg">
<path d="M29.8956 29.58C29.7457 29.82 29.4959 30 29.2461 30H0.769073C0.519275 30 0.269477 29.82 0.119597 29.58C-0.0302816 29.34 -0.0302818 28.98 0.0696376 28.74C2.2179 23.28 6.3146 19.32 11.1107 17.94C8.66271 16.32 7.01403 13.14 7.01403 9.6C7.01403 4.32 10.6111 0 15.0076 0C19.404 0 23.0011 4.32 23.0011 9.6C23.0011 13.2 21.3525 16.32 18.9044 17.94C23.7006 19.32 27.7973 23.28 29.9455 28.74C30.0455 28.98 29.9955 29.28 29.8956 29.58Z" fill="black"/>
</svg>
