<svg width="34" height="32" viewBox="0 0 34 30" fill="none" xmlns="http://www.w3.org/2000/svg">
<path d="M32.048 3.19183V15.3598C31.112 14.4598 29.96 13.7398 28.736 13.2718V5.60383H25.784V6.86383C25.784 6.93583 25.748 6.97183 25.676 6.97183H22.724C22.652 6.97183 22.616 6.93583 22.616 6.86383V5.60383H10.268V6.86383C10.268 6.93583 10.232 6.97183 10.16 6.97183H7.20799C7.13599 6.97183 7.09999 6.93583 7.09999 6.86383V5.60383H3.89599V22.9558H14.588C14.588 24.0718 14.768 25.1518 15.092 26.1598H1.59199C1.15999 26.1598 0.799988 25.7998 0.799988 25.3678V3.22783C0.799988 2.75983 1.15999 2.43583 1.59199 2.43583H7.02799V0.635832C7.02799 0.563832 7.06399 0.527832 7.13599 0.527832H10.088C10.16 0.527832 10.196 0.563832 10.196 0.635832V2.43583H22.508V0.635832C22.508 0.563832 22.544 0.527832 22.616 0.527832H25.64C25.712 0.527832 25.748 0.563832 25.748 0.635832V2.43583H31.22C31.688 2.39983 32.048 2.75983 32.048 3.19183Z" fill="black"/>
<path d="M25.784 10.2836V12.5876C25.532 12.5516 25.244 12.5516 24.956 12.5516C24.128 12.5516 23.336 12.6596 22.58 12.8036V10.2476C22.58 10.1756 22.616 10.1396 22.688 10.1396H25.64C25.748 10.1396 25.784 10.2116 25.784 10.2836Z" fill="black"/>
<path d="M10.124 19.7515H7.172C7.1 19.7515 7.064 19.7155 7.064 19.6435V16.6915C7.064 16.6195 7.1 16.5835 7.172 16.5835H10.124C10.196 16.5835 10.232 16.6195 10.232 16.6915V19.6435C10.268 19.7155 10.196 19.7515 10.124 19.7515Z" fill="black"/>
<path d="M10.124 13.3433H7.172C7.1 13.3433 7.064 13.3073 7.064 13.2353V10.2833C7.064 10.2113 7.1 10.1753 7.172 10.1753H10.124C10.196 10.1753 10.232 10.2113 10.232 10.2833V13.2353C10.268 13.3073 10.196 13.3433 10.124 13.3433Z" fill="black"/>
<path d="M16.784 16.5479C16.064 17.4839 15.452 18.5639 15.092 19.7519H14.984C14.912 19.7519 14.876 19.7159 14.876 19.6439V16.6919C14.876 16.6199 14.912 16.5839 14.984 16.5839H16.784V16.5479Z" fill="black"/>
<path d="M17.864 13.3433H14.912C14.84 13.3433 14.804 13.3073 14.804 13.2353V10.2833C14.804 10.2113 14.84 10.1753 14.912 10.1753H17.864C17.936 10.1753 17.972 10.2113 17.972 10.2833V13.2353C18.008 13.3073 17.972 13.3433 17.864 13.3433Z" fill="black"/>
<path d="M33.2 22.9554C33.2 27.5274 29.492 31.1994 24.956 31.1994C20.42 31.1994 16.712 27.4914 16.712 22.9554C16.712 18.4194 20.42 14.7114 24.956 14.7114C29.492 14.7114 33.2 18.4194 33.2 22.9554ZM28.34 26.0874V19.8594C28.34 19.7154 28.232 19.6074 28.088 19.6074H21.86C21.716 19.6074 21.608 19.7154 21.608 19.8594V26.0874C21.608 26.2314 21.716 26.3394 21.86 26.3394H28.088C28.232 26.3394 28.34 26.2314 28.34 26.0874Z" fill="black"/>
</svg>
