<svg width="34" height="32" viewBox="0 0 34 30" fill="none" xmlns="http://www.w3.org/2000/svg">
<path d="M32.048 3.19232V15.3603C31.112 14.4603 29.96 13.7403 28.736 13.2723V5.60432H25.784V6.86432C25.784 6.93632 25.748 6.97232 25.676 6.97232H22.724C22.652 6.97232 22.616 6.93632 22.616 6.86432V5.60432H10.268V6.86432C10.268 6.93632 10.232 6.97232 10.16 6.97232H7.20799C7.13599 6.97232 7.09999 6.93632 7.09999 6.86432V5.60432H3.89599V22.9563H14.588C14.588 24.0723 14.768 25.1523 15.092 26.1603H1.59199C1.15999 26.1603 0.799988 25.8003 0.799988 25.3683V3.22832C0.799988 2.76032 1.15999 2.43632 1.59199 2.43632H7.02799V0.63632C7.02799 0.56432 7.06399 0.52832 7.13599 0.52832H10.088C10.16 0.52832 10.196 0.56432 10.196 0.63632V2.43632H22.508V0.63632C22.508 0.56432 22.544 0.52832 22.616 0.52832H25.64C25.712 0.52832 25.748 0.56432 25.748 0.63632V2.43632H31.22C31.688 2.40032 32.048 2.76032 32.048 3.19232Z" fill="black"/>
<path d="M25.784 10.2841V12.5881C25.532 12.5521 25.244 12.5521 24.956 12.5521C24.128 12.5521 23.336 12.6601 22.58 12.8041V10.2481C22.58 10.1761 22.616 10.1401 22.688 10.1401H25.64C25.748 10.1401 25.784 10.2121 25.784 10.2841Z" fill="black"/>
<path d="M10.124 19.752H7.172C7.1 19.752 7.064 19.716 7.064 19.644V16.692C7.064 16.62 7.1 16.584 7.172 16.584H10.124C10.196 16.584 10.232 16.62 10.232 16.692V19.644C10.268 19.716 10.196 19.752 10.124 19.752Z" fill="black"/>
<path d="M10.124 13.3438H7.172C7.1 13.3438 7.064 13.3078 7.064 13.2358V10.2838C7.064 10.2118 7.1 10.1758 7.172 10.1758H10.124C10.196 10.1758 10.232 10.2118 10.232 10.2838V13.2358C10.268 13.3078 10.196 13.3438 10.124 13.3438Z" fill="black"/>
<path d="M16.784 16.5479C16.064 17.4839 15.452 18.5639 15.092 19.7519H14.984C14.912 19.7519 14.876 19.7159 14.876 19.6439V16.6919C14.876 16.6199 14.912 16.5839 14.984 16.5839H16.784V16.5479Z" fill="black"/>
<path d="M17.864 13.3438H14.912C14.84 13.3438 14.804 13.3078 14.804 13.2358V10.2838C14.804 10.2118 14.84 10.1758 14.912 10.1758H17.864C17.936 10.1758 17.972 10.2118 17.972 10.2838V13.2358C18.008 13.3078 17.972 13.3438 17.864 13.3438Z" fill="black"/>
<path d="M33.2 22.9559C33.2 27.5279 29.492 31.1999 24.956 31.1999C20.42 31.1999 16.712 27.4919 16.712 22.9559C16.712 18.4199 20.42 14.7119 24.956 14.7119C29.492 14.7119 33.2 18.4199 33.2 22.9559ZM28.664 22.7399L23.624 19.6439C23.444 19.5359 23.192 19.6439 23.192 19.8599V26.0879C23.192 26.3039 23.408 26.4119 23.624 26.3039L28.664 23.2079C28.844 23.0639 28.844 22.8479 28.664 22.7399Z" fill="black"/>
</svg>
