<svg width="39" height="25" viewBox="0 0 36 25" fill="none" xmlns="http://www.w3.org/2000/svg">
<path fill-rule="evenodd" clip-rule="evenodd" d="M1.9399 0H23.1841C24.2251 0 25.0767 0.856814 25.0767 1.95163V17.6123C25.0767 18.7071 24.2251 19.5639 23.1841 19.5639H15.3299L17.8376 23.8956H7.23913L9.7468 19.5639H1.9399C0.851662 19.5639 0 18.7071 0 17.6123V1.95163C0 0.856814 0.851662 0 1.9399 0ZM12.5384 17.4219L12.9642 17.8503L13.4373 18.2311L12.9642 18.6119L12.5384 19.0403L12.1125 18.6119L11.6867 18.2311L12.1125 17.8503L12.5384 17.4219ZM1.51407 1.66603C1.46675 1.66603 1.46675 15.0418 1.46675 16.2319H23.61C23.61 15.0418 23.61 1.66603 23.61 1.66603H1.51407Z" fill="black"/>
<path fill-rule="evenodd" clip-rule="evenodd" d="M27.2059 0.142578H35.5333C36.3376 0.142578 37 0.808989 37 1.6182V23.3242C37 24.1334 36.3376 24.7998 35.5333 24.7998H27.2059C26.4015 24.7998 25.7391 24.1334 25.7391 23.3242V1.6182C25.7391 0.808989 26.4015 0.142578 27.2059 0.142578ZM31.3696 14.0896C32.0793 14.0896 32.6471 14.6608 32.6471 15.4224C32.6471 16.1364 32.0793 16.7076 31.3696 16.7076C30.6125 16.7076 30.0448 16.1364 30.0448 15.4224C30.0448 14.6608 30.6125 14.0896 31.3696 14.0896ZM31.3696 18.5165C32.0793 18.5165 32.6471 19.1353 32.6471 19.8493C32.6471 20.5633 32.0793 21.1821 31.3696 21.1821C30.6125 21.1821 30.0448 20.5633 30.0448 19.8493C30.0448 19.1353 30.6125 18.5165 31.3696 18.5165ZM28.4834 6.90189H34.2558C34.7762 6.90189 35.2021 7.33029 35.2021 7.9015C35.2021 8.42511 34.7762 8.85352 34.2558 8.85352H28.4834C27.9156 8.85352 27.4898 8.42511 27.4898 7.9015C27.4898 7.33029 27.9156 6.90189 28.4834 6.90189ZM28.4834 3.09383H34.2558C34.7762 3.09383 35.2021 3.52223 35.2021 4.04584C35.2021 4.61705 34.7762 5.04546 34.2558 5.04546H28.4834C27.9156 5.04546 27.4898 4.61705 27.4898 4.04584C27.4898 3.52223 27.9156 3.09383 28.4834 3.09383Z" fill="black"/>
</svg>
